%TF.GenerationSoftware,KiCad,Pcbnew,7.0.6*%
%TF.CreationDate,2023-08-27T21:43:50+09:00*%
%TF.ProjectId,QFN40_6x6_DIP_panelized,51464e34-305f-4367-9836-5f4449505f70,rev?*%
%TF.SameCoordinates,Original*%
%TF.FileFunction,Legend,Top*%
%TF.FilePolarity,Positive*%
%FSLAX46Y46*%
G04 Gerber Fmt 4.6, Leading zero omitted, Abs format (unit mm)*
G04 Created by KiCad (PCBNEW 7.0.6) date 2023-08-27 21:43:50*
%MOMM*%
%LPD*%
G01*
G04 APERTURE LIST*
%ADD10C,0.200000*%
%ADD11C,0.120000*%
%ADD12C,0.170000*%
%ADD13C,0.100000*%
G04 APERTURE END LIST*
D10*
X65305000Y-133350000D02*
X66775000Y-133350000D01*
X95785000Y-133350000D02*
X97255000Y-133350000D01*
X113565000Y-120650000D02*
X115035000Y-120650000D01*
X126265000Y-133350000D02*
X127735000Y-133350000D01*
X98325000Y-107950000D02*
X99795000Y-107950000D01*
X126265000Y-120650000D02*
X127735000Y-120650000D01*
X128805000Y-107950000D02*
X130275000Y-107950000D01*
X113565000Y-133350000D02*
X115035000Y-133350000D01*
X141505000Y-107950000D02*
X142975000Y-107950000D01*
X111025000Y-133350000D02*
X112495000Y-133350000D01*
X113565000Y-107950000D02*
X115035000Y-107950000D01*
X65305000Y-107950000D02*
X66775000Y-107950000D01*
X128805000Y-120650000D02*
X130275000Y-120650000D01*
X80545000Y-120650000D02*
X82015000Y-120650000D01*
X83085000Y-133350000D02*
X84555000Y-133350000D01*
X98325000Y-133350000D02*
X99795000Y-133350000D01*
X95785000Y-107950000D02*
X97255000Y-107950000D01*
X83085000Y-107950000D02*
X84555000Y-107950000D01*
X95785000Y-120650000D02*
X97255000Y-120650000D01*
X83085000Y-120650000D02*
X84555000Y-120650000D01*
X141505000Y-133350000D02*
X142975000Y-133350000D01*
X111025000Y-107950000D02*
X112495000Y-107950000D01*
X111025000Y-120650000D02*
X112495000Y-120650000D01*
X80545000Y-107950000D02*
X82015000Y-107950000D01*
X141505000Y-120650000D02*
X142975000Y-120650000D01*
X98325000Y-120650000D02*
X99795000Y-120650000D01*
X52605000Y-120650000D02*
X54075000Y-120650000D01*
X52605000Y-133350000D02*
X54075000Y-133350000D01*
X128805000Y-133350000D02*
X130275000Y-133350000D01*
X126265000Y-107950000D02*
X127735000Y-107950000D01*
X67845000Y-120650000D02*
X69315000Y-120650000D01*
X52605000Y-107950000D02*
X54075000Y-107950000D01*
X67845000Y-133350000D02*
X69315000Y-133350000D01*
X65305000Y-120650000D02*
X66775000Y-120650000D01*
X80545000Y-133350000D02*
X82015000Y-133350000D01*
X67845000Y-107950000D02*
X69315000Y-107950000D01*
X128805000Y-69850000D02*
X130275000Y-69850000D01*
X141505000Y-82550000D02*
X142975000Y-82550000D01*
X141505000Y-69850000D02*
X142975000Y-69850000D01*
X128805000Y-82550000D02*
X130275000Y-82550000D01*
X128805000Y-57150000D02*
X130275000Y-57150000D01*
X141505000Y-57150000D02*
X142975000Y-57150000D01*
X113565000Y-57150000D02*
X115035000Y-57150000D01*
X126265000Y-82550000D02*
X127735000Y-82550000D01*
X113565000Y-82550000D02*
X115035000Y-82550000D01*
X126265000Y-57150000D02*
X127735000Y-57150000D01*
X126265000Y-69850000D02*
X127735000Y-69850000D01*
X113565000Y-69850000D02*
X115035000Y-69850000D01*
X111025000Y-82550000D02*
X112495000Y-82550000D01*
X98325000Y-82550000D02*
X99795000Y-82550000D01*
X111025000Y-57150000D02*
X112495000Y-57150000D01*
X98325000Y-57150000D02*
X99795000Y-57150000D01*
X111025000Y-69850000D02*
X112495000Y-69850000D01*
X98325000Y-69850000D02*
X99795000Y-69850000D01*
X95785000Y-69850000D02*
X97255000Y-69850000D01*
X95785000Y-57150000D02*
X97255000Y-57150000D01*
X83085000Y-69850000D02*
X84555000Y-69850000D01*
X83085000Y-82550000D02*
X84555000Y-82550000D01*
X95785000Y-82550000D02*
X97255000Y-82550000D01*
X83085000Y-57150000D02*
X84555000Y-57150000D01*
X80545000Y-82550000D02*
X82015000Y-82550000D01*
X80545000Y-57150000D02*
X82015000Y-57150000D01*
X67845000Y-69850000D02*
X69315000Y-69850000D01*
X67845000Y-82550000D02*
X69315000Y-82550000D01*
X67845000Y-57150000D02*
X69315000Y-57150000D01*
X80545000Y-69850000D02*
X82015000Y-69850000D01*
X65305000Y-69850000D02*
X66775000Y-69850000D01*
X65305000Y-82550000D02*
X66775000Y-82550000D01*
X65305000Y-57150000D02*
X66775000Y-57150000D01*
X52605000Y-82550000D02*
X54075000Y-82550000D01*
X52605000Y-57150000D02*
X54075000Y-57150000D01*
X52605000Y-69850000D02*
X54075000Y-69850000D01*
D11*
X101011796Y-120650000D02*
X101347672Y-120314124D01*
X101347672Y-120985876D02*
X101011796Y-120650000D01*
X109472328Y-120314124D02*
X109808204Y-120650000D01*
X105074124Y-124712328D02*
X105410000Y-125048204D01*
X109808204Y-120650000D02*
X109472328Y-120985876D01*
X105410000Y-125048204D02*
X105745876Y-124712328D01*
D12*
X105495000Y-116322506D02*
G75*
G03*
X105495000Y-116322506I-85000J0D01*
G01*
D13*
X105410000Y-117057898D02*
G75*
G03*
X105410000Y-117057898I0J0D01*
G01*
X105410000Y-117057898D02*
G75*
G03*
X105410000Y-117057898I0J0D01*
G01*
D11*
X85771796Y-120650000D02*
X86107672Y-120314124D01*
X86107672Y-120985876D02*
X85771796Y-120650000D01*
X94232328Y-120314124D02*
X94568204Y-120650000D01*
X89834124Y-124712328D02*
X90170000Y-125048204D01*
X94568204Y-120650000D02*
X94232328Y-120985876D01*
X90170000Y-125048204D02*
X90505876Y-124712328D01*
D12*
X90255000Y-116322506D02*
G75*
G03*
X90255000Y-116322506I-85000J0D01*
G01*
D13*
X90170000Y-117057898D02*
G75*
G03*
X90170000Y-117057898I0J0D01*
G01*
X90170000Y-117057898D02*
G75*
G03*
X90170000Y-117057898I0J0D01*
G01*
D11*
X70531796Y-120650000D02*
X70867672Y-120314124D01*
X70867672Y-120985876D02*
X70531796Y-120650000D01*
X78992328Y-120314124D02*
X79328204Y-120650000D01*
X74594124Y-124712328D02*
X74930000Y-125048204D01*
X79328204Y-120650000D02*
X78992328Y-120985876D01*
X74930000Y-125048204D02*
X75265876Y-124712328D01*
D12*
X75015000Y-116322506D02*
G75*
G03*
X75015000Y-116322506I-85000J0D01*
G01*
D13*
X74930000Y-117057898D02*
G75*
G03*
X74930000Y-117057898I0J0D01*
G01*
X74930000Y-117057898D02*
G75*
G03*
X74930000Y-117057898I0J0D01*
G01*
D11*
X131491796Y-120650000D02*
X131827672Y-120314124D01*
X131827672Y-120985876D02*
X131491796Y-120650000D01*
X139952328Y-120314124D02*
X140288204Y-120650000D01*
X135554124Y-124712328D02*
X135890000Y-125048204D01*
X140288204Y-120650000D02*
X139952328Y-120985876D01*
X135890000Y-125048204D02*
X136225876Y-124712328D01*
D12*
X135975000Y-116322506D02*
G75*
G03*
X135975000Y-116322506I-85000J0D01*
G01*
D13*
X135890000Y-117057898D02*
G75*
G03*
X135890000Y-117057898I0J0D01*
G01*
X135890000Y-117057898D02*
G75*
G03*
X135890000Y-117057898I0J0D01*
G01*
D11*
X116251796Y-120650000D02*
X116587672Y-120314124D01*
X116587672Y-120985876D02*
X116251796Y-120650000D01*
X124712328Y-120314124D02*
X125048204Y-120650000D01*
X120314124Y-124712328D02*
X120650000Y-125048204D01*
X125048204Y-120650000D02*
X124712328Y-120985876D01*
X120650000Y-125048204D02*
X120985876Y-124712328D01*
D12*
X120735000Y-116322506D02*
G75*
G03*
X120735000Y-116322506I-85000J0D01*
G01*
D13*
X120650000Y-117057898D02*
G75*
G03*
X120650000Y-117057898I0J0D01*
G01*
X120650000Y-117057898D02*
G75*
G03*
X120650000Y-117057898I0J0D01*
G01*
D11*
X55291796Y-120650000D02*
X55627672Y-120314124D01*
X55627672Y-120985876D02*
X55291796Y-120650000D01*
X63752328Y-120314124D02*
X64088204Y-120650000D01*
X59354124Y-124712328D02*
X59690000Y-125048204D01*
X64088204Y-120650000D02*
X63752328Y-120985876D01*
X59690000Y-125048204D02*
X60025876Y-124712328D01*
D12*
X59775000Y-116322506D02*
G75*
G03*
X59775000Y-116322506I-85000J0D01*
G01*
D13*
X59690000Y-117057898D02*
G75*
G03*
X59690000Y-117057898I0J0D01*
G01*
X59690000Y-117057898D02*
G75*
G03*
X59690000Y-117057898I0J0D01*
G01*
D11*
X131491796Y-69850000D02*
X131827672Y-69514124D01*
X131827672Y-70185876D02*
X131491796Y-69850000D01*
X139952328Y-69514124D02*
X140288204Y-69850000D01*
X135554124Y-73912328D02*
X135890000Y-74248204D01*
X140288204Y-69850000D02*
X139952328Y-70185876D01*
X135890000Y-74248204D02*
X136225876Y-73912328D01*
D12*
X135975000Y-65522506D02*
G75*
G03*
X135975000Y-65522506I-85000J0D01*
G01*
D13*
X135890000Y-66257898D02*
G75*
G03*
X135890000Y-66257898I0J0D01*
G01*
X135890000Y-66257898D02*
G75*
G03*
X135890000Y-66257898I0J0D01*
G01*
D11*
X116251796Y-69850000D02*
X116587672Y-69514124D01*
X116587672Y-70185876D02*
X116251796Y-69850000D01*
X124712328Y-69514124D02*
X125048204Y-69850000D01*
X120314124Y-73912328D02*
X120650000Y-74248204D01*
X125048204Y-69850000D02*
X124712328Y-70185876D01*
X120650000Y-74248204D02*
X120985876Y-73912328D01*
D12*
X120735000Y-65522506D02*
G75*
G03*
X120735000Y-65522506I-85000J0D01*
G01*
D13*
X120650000Y-66257898D02*
G75*
G03*
X120650000Y-66257898I0J0D01*
G01*
X120650000Y-66257898D02*
G75*
G03*
X120650000Y-66257898I0J0D01*
G01*
D11*
X101011796Y-69850000D02*
X101347672Y-69514124D01*
X101347672Y-70185876D02*
X101011796Y-69850000D01*
X109472328Y-69514124D02*
X109808204Y-69850000D01*
X105074124Y-73912328D02*
X105410000Y-74248204D01*
X109808204Y-69850000D02*
X109472328Y-70185876D01*
X105410000Y-74248204D02*
X105745876Y-73912328D01*
D12*
X105495000Y-65522506D02*
G75*
G03*
X105495000Y-65522506I-85000J0D01*
G01*
D13*
X105410000Y-66257898D02*
G75*
G03*
X105410000Y-66257898I0J0D01*
G01*
X105410000Y-66257898D02*
G75*
G03*
X105410000Y-66257898I0J0D01*
G01*
D11*
X85771796Y-69850000D02*
X86107672Y-69514124D01*
X86107672Y-70185876D02*
X85771796Y-69850000D01*
X94232328Y-69514124D02*
X94568204Y-69850000D01*
X89834124Y-73912328D02*
X90170000Y-74248204D01*
X94568204Y-69850000D02*
X94232328Y-70185876D01*
X90170000Y-74248204D02*
X90505876Y-73912328D01*
D12*
X90255000Y-65522506D02*
G75*
G03*
X90255000Y-65522506I-85000J0D01*
G01*
D13*
X90170000Y-66257898D02*
G75*
G03*
X90170000Y-66257898I0J0D01*
G01*
X90170000Y-66257898D02*
G75*
G03*
X90170000Y-66257898I0J0D01*
G01*
D11*
X70531796Y-69850000D02*
X70867672Y-69514124D01*
X70867672Y-70185876D02*
X70531796Y-69850000D01*
X78992328Y-69514124D02*
X79328204Y-69850000D01*
X74594124Y-73912328D02*
X74930000Y-74248204D01*
X79328204Y-69850000D02*
X78992328Y-70185876D01*
X74930000Y-74248204D02*
X75265876Y-73912328D01*
D12*
X75015000Y-65522506D02*
G75*
G03*
X75015000Y-65522506I-85000J0D01*
G01*
D13*
X74930000Y-66257898D02*
G75*
G03*
X74930000Y-66257898I0J0D01*
G01*
X74930000Y-66257898D02*
G75*
G03*
X74930000Y-66257898I0J0D01*
G01*
D11*
X55291796Y-69850000D02*
X55627672Y-69514124D01*
X55627672Y-70185876D02*
X55291796Y-69850000D01*
X63752328Y-69514124D02*
X64088204Y-69850000D01*
X59354124Y-73912328D02*
X59690000Y-74248204D01*
X64088204Y-69850000D02*
X63752328Y-70185876D01*
X59690000Y-74248204D02*
X60025876Y-73912328D01*
D12*
X59775000Y-65522506D02*
G75*
G03*
X59775000Y-65522506I-85000J0D01*
G01*
D13*
X59690000Y-66257898D02*
G75*
G03*
X59690000Y-66257898I0J0D01*
G01*
X59690000Y-66257898D02*
G75*
G03*
X59690000Y-66257898I0J0D01*
G01*
M02*
