%TF.GenerationSoftware,KiCad,Pcbnew,7.0.6*%
%TF.CreationDate,2023-08-27T21:43:50+09:00*%
%TF.ProjectId,QFN40_6x6_DIP_panelized,51464e34-305f-4367-9836-5f4449505f70,rev?*%
%TF.SameCoordinates,Original*%
%TF.FileFunction,Soldermask,Top*%
%TF.FilePolarity,Negative*%
%FSLAX46Y46*%
G04 Gerber Fmt 4.6, Leading zero omitted, Abs format (unit mm)*
G04 Created by KiCad (PCBNEW 7.0.6) date 2023-08-27 21:43:50*
%MOMM*%
%LPD*%
G01*
G04 APERTURE LIST*
G04 Aperture macros list*
%AMRoundRect*
0 Rectangle with rounded corners*
0 $1 Rounding radius*
0 $2 $3 $4 $5 $6 $7 $8 $9 X,Y pos of 4 corners*
0 Add a 4 corners polygon primitive as box body*
4,1,4,$2,$3,$4,$5,$6,$7,$8,$9,$2,$3,0*
0 Add four circle primitives for the rounded corners*
1,1,$1+$1,$2,$3*
1,1,$1+$1,$4,$5*
1,1,$1+$1,$6,$7*
1,1,$1+$1,$8,$9*
0 Add four rect primitives between the rounded corners*
20,1,$1+$1,$2,$3,$4,$5,0*
20,1,$1+$1,$4,$5,$6,$7,0*
20,1,$1+$1,$6,$7,$8,$9,0*
20,1,$1+$1,$8,$9,$2,$3,0*%
%AMRotRect*
0 Rectangle, with rotation*
0 The origin of the aperture is its center*
0 $1 length*
0 $2 width*
0 $3 Rotation angle, in degrees counterclockwise*
0 Add horizontal line*
21,1,$1,$2,0,0,$3*%
G04 Aperture macros list end*
%ADD10R,1.600000X1.600000*%
%ADD11O,1.700000X1.700000*%
%ADD12RoundRect,0.062500X-0.645235X0.556847X0.556847X-0.645235X0.645235X-0.556847X-0.556847X0.645235X0*%
%ADD13RoundRect,0.062500X-0.645235X-0.556847X-0.556847X-0.645235X0.645235X0.556847X0.556847X0.645235X0*%
%ADD14RoundRect,0.800000X-1.697056X0.000000X0.000000X-1.697056X1.697056X0.000000X0.000000X1.697056X0*%
%ADD15RotRect,4.600000X4.600000X315.000000*%
G04 APERTURE END LIST*
D10*
X114300000Y-96520000D03*
D11*
X114300000Y-99060000D03*
X114300000Y-101600000D03*
X114300000Y-104140000D03*
X114300000Y-106680000D03*
X114300000Y-109220000D03*
X114300000Y-111760000D03*
X114300000Y-114300000D03*
X114300000Y-116840000D03*
X114300000Y-119380000D03*
X114300000Y-121920000D03*
X114300000Y-124460000D03*
X114300000Y-127000000D03*
X114300000Y-129540000D03*
X114300000Y-132080000D03*
X114300000Y-134620000D03*
X114300000Y-137160000D03*
X114300000Y-139700000D03*
X114300000Y-142240000D03*
X114300000Y-144780000D03*
X127000000Y-96520000D03*
X127000000Y-99060000D03*
X127000000Y-101600000D03*
X127000000Y-104140000D03*
X127000000Y-106680000D03*
X127000000Y-109220000D03*
X127000000Y-111760000D03*
X127000000Y-114300000D03*
X127000000Y-116840000D03*
X127000000Y-119380000D03*
X127000000Y-121920000D03*
X127000000Y-124460000D03*
X127000000Y-127000000D03*
X127000000Y-129540000D03*
X127000000Y-132080000D03*
X127000000Y-134620000D03*
X127000000Y-137160000D03*
X127000000Y-139700000D03*
X127000000Y-142240000D03*
X127000000Y-144780000D03*
D10*
X129540000Y-96520000D03*
D11*
X129540000Y-99060000D03*
X129540000Y-101600000D03*
X129540000Y-104140000D03*
X129540000Y-106680000D03*
X129540000Y-109220000D03*
X129540000Y-111760000D03*
X129540000Y-114300000D03*
X129540000Y-116840000D03*
X129540000Y-119380000D03*
X129540000Y-121920000D03*
X129540000Y-124460000D03*
X129540000Y-127000000D03*
X129540000Y-129540000D03*
X129540000Y-132080000D03*
X129540000Y-134620000D03*
X129540000Y-137160000D03*
X129540000Y-139700000D03*
X129540000Y-142240000D03*
X129540000Y-144780000D03*
X142240000Y-96520000D03*
X142240000Y-99060000D03*
X142240000Y-101600000D03*
X142240000Y-104140000D03*
X142240000Y-106680000D03*
X142240000Y-109220000D03*
X142240000Y-111760000D03*
X142240000Y-114300000D03*
X142240000Y-116840000D03*
X142240000Y-119380000D03*
X142240000Y-121920000D03*
X142240000Y-124460000D03*
X142240000Y-127000000D03*
X142240000Y-129540000D03*
X142240000Y-132080000D03*
X142240000Y-134620000D03*
X142240000Y-137160000D03*
X142240000Y-139700000D03*
X142240000Y-142240000D03*
X142240000Y-144780000D03*
D12*
X104570311Y-116628330D03*
X104216757Y-116981884D03*
X103863204Y-117335437D03*
X103509651Y-117688990D03*
X103156097Y-118042544D03*
X102802544Y-118396097D03*
X102448990Y-118749651D03*
X102095437Y-119103204D03*
X101741884Y-119456757D03*
X101388330Y-119810311D03*
D13*
X101388330Y-121489689D03*
X101741884Y-121843243D03*
X102095437Y-122196796D03*
X102448990Y-122550349D03*
X102802544Y-122903903D03*
X103156097Y-123257456D03*
X103509651Y-123611010D03*
X103863204Y-123964563D03*
X104216757Y-124318116D03*
X104570311Y-124671670D03*
D12*
X106249689Y-124671670D03*
X106603243Y-124318116D03*
X106956796Y-123964563D03*
X107310349Y-123611010D03*
X107663903Y-123257456D03*
X108017456Y-122903903D03*
X108371010Y-122550349D03*
X108724563Y-122196796D03*
X109078116Y-121843243D03*
X109431670Y-121489689D03*
D13*
X109431670Y-119810311D03*
X109078116Y-119456757D03*
X108724563Y-119103204D03*
X108371010Y-118749651D03*
X108017456Y-118396097D03*
X107663903Y-118042544D03*
X107310349Y-117688990D03*
X106956796Y-117335437D03*
X106603243Y-116981884D03*
X106249689Y-116628330D03*
D14*
X105410000Y-120650000D03*
D15*
X105410000Y-120650000D03*
D10*
X99060000Y-96520000D03*
D11*
X99060000Y-99060000D03*
X99060000Y-101600000D03*
X99060000Y-104140000D03*
X99060000Y-106680000D03*
X99060000Y-109220000D03*
X99060000Y-111760000D03*
X99060000Y-114300000D03*
X99060000Y-116840000D03*
X99060000Y-119380000D03*
X99060000Y-121920000D03*
X99060000Y-124460000D03*
X99060000Y-127000000D03*
X99060000Y-129540000D03*
X99060000Y-132080000D03*
X99060000Y-134620000D03*
X99060000Y-137160000D03*
X99060000Y-139700000D03*
X99060000Y-142240000D03*
X99060000Y-144780000D03*
X81280000Y-96520000D03*
X81280000Y-99060000D03*
X81280000Y-101600000D03*
X81280000Y-104140000D03*
X81280000Y-106680000D03*
X81280000Y-109220000D03*
X81280000Y-111760000D03*
X81280000Y-114300000D03*
X81280000Y-116840000D03*
X81280000Y-119380000D03*
X81280000Y-121920000D03*
X81280000Y-124460000D03*
X81280000Y-127000000D03*
X81280000Y-129540000D03*
X81280000Y-132080000D03*
X81280000Y-134620000D03*
X81280000Y-137160000D03*
X81280000Y-139700000D03*
X81280000Y-142240000D03*
X81280000Y-144780000D03*
D10*
X68580000Y-96520000D03*
D11*
X68580000Y-99060000D03*
X68580000Y-101600000D03*
X68580000Y-104140000D03*
X68580000Y-106680000D03*
X68580000Y-109220000D03*
X68580000Y-111760000D03*
X68580000Y-114300000D03*
X68580000Y-116840000D03*
X68580000Y-119380000D03*
X68580000Y-121920000D03*
X68580000Y-124460000D03*
X68580000Y-127000000D03*
X68580000Y-129540000D03*
X68580000Y-132080000D03*
X68580000Y-134620000D03*
X68580000Y-137160000D03*
X68580000Y-139700000D03*
X68580000Y-142240000D03*
X68580000Y-144780000D03*
D12*
X89330311Y-116628330D03*
X88976757Y-116981884D03*
X88623204Y-117335437D03*
X88269651Y-117688990D03*
X87916097Y-118042544D03*
X87562544Y-118396097D03*
X87208990Y-118749651D03*
X86855437Y-119103204D03*
X86501884Y-119456757D03*
X86148330Y-119810311D03*
D13*
X86148330Y-121489689D03*
X86501884Y-121843243D03*
X86855437Y-122196796D03*
X87208990Y-122550349D03*
X87562544Y-122903903D03*
X87916097Y-123257456D03*
X88269651Y-123611010D03*
X88623204Y-123964563D03*
X88976757Y-124318116D03*
X89330311Y-124671670D03*
D12*
X91009689Y-124671670D03*
X91363243Y-124318116D03*
X91716796Y-123964563D03*
X92070349Y-123611010D03*
X92423903Y-123257456D03*
X92777456Y-122903903D03*
X93131010Y-122550349D03*
X93484563Y-122196796D03*
X93838116Y-121843243D03*
X94191670Y-121489689D03*
D13*
X94191670Y-119810311D03*
X93838116Y-119456757D03*
X93484563Y-119103204D03*
X93131010Y-118749651D03*
X92777456Y-118396097D03*
X92423903Y-118042544D03*
X92070349Y-117688990D03*
X91716796Y-117335437D03*
X91363243Y-116981884D03*
X91009689Y-116628330D03*
D14*
X90170000Y-120650000D03*
D15*
X90170000Y-120650000D03*
D11*
X96520000Y-96520000D03*
X96520000Y-99060000D03*
X96520000Y-101600000D03*
X96520000Y-104140000D03*
X96520000Y-106680000D03*
X96520000Y-109220000D03*
X96520000Y-111760000D03*
X96520000Y-114300000D03*
X96520000Y-116840000D03*
X96520000Y-119380000D03*
X96520000Y-121920000D03*
X96520000Y-124460000D03*
X96520000Y-127000000D03*
X96520000Y-129540000D03*
X96520000Y-132080000D03*
X96520000Y-134620000D03*
X96520000Y-137160000D03*
X96520000Y-139700000D03*
X96520000Y-142240000D03*
X96520000Y-144780000D03*
D10*
X53340000Y-96520000D03*
D11*
X53340000Y-99060000D03*
X53340000Y-101600000D03*
X53340000Y-104140000D03*
X53340000Y-106680000D03*
X53340000Y-109220000D03*
X53340000Y-111760000D03*
X53340000Y-114300000D03*
X53340000Y-116840000D03*
X53340000Y-119380000D03*
X53340000Y-121920000D03*
X53340000Y-124460000D03*
X53340000Y-127000000D03*
X53340000Y-129540000D03*
X53340000Y-132080000D03*
X53340000Y-134620000D03*
X53340000Y-137160000D03*
X53340000Y-139700000D03*
X53340000Y-142240000D03*
X53340000Y-144780000D03*
D12*
X74090311Y-116628330D03*
X73736757Y-116981884D03*
X73383204Y-117335437D03*
X73029651Y-117688990D03*
X72676097Y-118042544D03*
X72322544Y-118396097D03*
X71968990Y-118749651D03*
X71615437Y-119103204D03*
X71261884Y-119456757D03*
X70908330Y-119810311D03*
D13*
X70908330Y-121489689D03*
X71261884Y-121843243D03*
X71615437Y-122196796D03*
X71968990Y-122550349D03*
X72322544Y-122903903D03*
X72676097Y-123257456D03*
X73029651Y-123611010D03*
X73383204Y-123964563D03*
X73736757Y-124318116D03*
X74090311Y-124671670D03*
D12*
X75769689Y-124671670D03*
X76123243Y-124318116D03*
X76476796Y-123964563D03*
X76830349Y-123611010D03*
X77183903Y-123257456D03*
X77537456Y-122903903D03*
X77891010Y-122550349D03*
X78244563Y-122196796D03*
X78598116Y-121843243D03*
X78951670Y-121489689D03*
D13*
X78951670Y-119810311D03*
X78598116Y-119456757D03*
X78244563Y-119103204D03*
X77891010Y-118749651D03*
X77537456Y-118396097D03*
X77183903Y-118042544D03*
X76830349Y-117688990D03*
X76476796Y-117335437D03*
X76123243Y-116981884D03*
X75769689Y-116628330D03*
D14*
X74930000Y-120650000D03*
D15*
X74930000Y-120650000D03*
D11*
X66040000Y-96520000D03*
X66040000Y-99060000D03*
X66040000Y-101600000D03*
X66040000Y-104140000D03*
X66040000Y-106680000D03*
X66040000Y-109220000D03*
X66040000Y-111760000D03*
X66040000Y-114300000D03*
X66040000Y-116840000D03*
X66040000Y-119380000D03*
X66040000Y-121920000D03*
X66040000Y-124460000D03*
X66040000Y-127000000D03*
X66040000Y-129540000D03*
X66040000Y-132080000D03*
X66040000Y-134620000D03*
X66040000Y-137160000D03*
X66040000Y-139700000D03*
X66040000Y-142240000D03*
X66040000Y-144780000D03*
X111760000Y-96520000D03*
X111760000Y-99060000D03*
X111760000Y-101600000D03*
X111760000Y-104140000D03*
X111760000Y-106680000D03*
X111760000Y-109220000D03*
X111760000Y-111760000D03*
X111760000Y-114300000D03*
X111760000Y-116840000D03*
X111760000Y-119380000D03*
X111760000Y-121920000D03*
X111760000Y-124460000D03*
X111760000Y-127000000D03*
X111760000Y-129540000D03*
X111760000Y-132080000D03*
X111760000Y-134620000D03*
X111760000Y-137160000D03*
X111760000Y-139700000D03*
X111760000Y-142240000D03*
X111760000Y-144780000D03*
D10*
X83820000Y-96520000D03*
D11*
X83820000Y-99060000D03*
X83820000Y-101600000D03*
X83820000Y-104140000D03*
X83820000Y-106680000D03*
X83820000Y-109220000D03*
X83820000Y-111760000D03*
X83820000Y-114300000D03*
X83820000Y-116840000D03*
X83820000Y-119380000D03*
X83820000Y-121920000D03*
X83820000Y-124460000D03*
X83820000Y-127000000D03*
X83820000Y-129540000D03*
X83820000Y-132080000D03*
X83820000Y-134620000D03*
X83820000Y-137160000D03*
X83820000Y-139700000D03*
X83820000Y-142240000D03*
X83820000Y-144780000D03*
D12*
X135050311Y-116628330D03*
X134696757Y-116981884D03*
X134343204Y-117335437D03*
X133989651Y-117688990D03*
X133636097Y-118042544D03*
X133282544Y-118396097D03*
X132928990Y-118749651D03*
X132575437Y-119103204D03*
X132221884Y-119456757D03*
X131868330Y-119810311D03*
D13*
X131868330Y-121489689D03*
X132221884Y-121843243D03*
X132575437Y-122196796D03*
X132928990Y-122550349D03*
X133282544Y-122903903D03*
X133636097Y-123257456D03*
X133989651Y-123611010D03*
X134343204Y-123964563D03*
X134696757Y-124318116D03*
X135050311Y-124671670D03*
D12*
X136729689Y-124671670D03*
X137083243Y-124318116D03*
X137436796Y-123964563D03*
X137790349Y-123611010D03*
X138143903Y-123257456D03*
X138497456Y-122903903D03*
X138851010Y-122550349D03*
X139204563Y-122196796D03*
X139558116Y-121843243D03*
X139911670Y-121489689D03*
D13*
X139911670Y-119810311D03*
X139558116Y-119456757D03*
X139204563Y-119103204D03*
X138851010Y-118749651D03*
X138497456Y-118396097D03*
X138143903Y-118042544D03*
X137790349Y-117688990D03*
X137436796Y-117335437D03*
X137083243Y-116981884D03*
X136729689Y-116628330D03*
D14*
X135890000Y-120650000D03*
D15*
X135890000Y-120650000D03*
D12*
X119810311Y-116628330D03*
X119456757Y-116981884D03*
X119103204Y-117335437D03*
X118749651Y-117688990D03*
X118396097Y-118042544D03*
X118042544Y-118396097D03*
X117688990Y-118749651D03*
X117335437Y-119103204D03*
X116981884Y-119456757D03*
X116628330Y-119810311D03*
D13*
X116628330Y-121489689D03*
X116981884Y-121843243D03*
X117335437Y-122196796D03*
X117688990Y-122550349D03*
X118042544Y-122903903D03*
X118396097Y-123257456D03*
X118749651Y-123611010D03*
X119103204Y-123964563D03*
X119456757Y-124318116D03*
X119810311Y-124671670D03*
D12*
X121489689Y-124671670D03*
X121843243Y-124318116D03*
X122196796Y-123964563D03*
X122550349Y-123611010D03*
X122903903Y-123257456D03*
X123257456Y-122903903D03*
X123611010Y-122550349D03*
X123964563Y-122196796D03*
X124318116Y-121843243D03*
X124671670Y-121489689D03*
D13*
X124671670Y-119810311D03*
X124318116Y-119456757D03*
X123964563Y-119103204D03*
X123611010Y-118749651D03*
X123257456Y-118396097D03*
X122903903Y-118042544D03*
X122550349Y-117688990D03*
X122196796Y-117335437D03*
X121843243Y-116981884D03*
X121489689Y-116628330D03*
D14*
X120650000Y-120650000D03*
D15*
X120650000Y-120650000D03*
D12*
X58850311Y-116628330D03*
X58496757Y-116981884D03*
X58143204Y-117335437D03*
X57789651Y-117688990D03*
X57436097Y-118042544D03*
X57082544Y-118396097D03*
X56728990Y-118749651D03*
X56375437Y-119103204D03*
X56021884Y-119456757D03*
X55668330Y-119810311D03*
D13*
X55668330Y-121489689D03*
X56021884Y-121843243D03*
X56375437Y-122196796D03*
X56728990Y-122550349D03*
X57082544Y-122903903D03*
X57436097Y-123257456D03*
X57789651Y-123611010D03*
X58143204Y-123964563D03*
X58496757Y-124318116D03*
X58850311Y-124671670D03*
D12*
X60529689Y-124671670D03*
X60883243Y-124318116D03*
X61236796Y-123964563D03*
X61590349Y-123611010D03*
X61943903Y-123257456D03*
X62297456Y-122903903D03*
X62651010Y-122550349D03*
X63004563Y-122196796D03*
X63358116Y-121843243D03*
X63711670Y-121489689D03*
D13*
X63711670Y-119810311D03*
X63358116Y-119456757D03*
X63004563Y-119103204D03*
X62651010Y-118749651D03*
X62297456Y-118396097D03*
X61943903Y-118042544D03*
X61590349Y-117688990D03*
X61236796Y-117335437D03*
X60883243Y-116981884D03*
X60529689Y-116628330D03*
D14*
X59690000Y-120650000D03*
D15*
X59690000Y-120650000D03*
D10*
X129540000Y-45720000D03*
D11*
X129540000Y-48260000D03*
X129540000Y-50800000D03*
X129540000Y-53340000D03*
X129540000Y-55880000D03*
X129540000Y-58420000D03*
X129540000Y-60960000D03*
X129540000Y-63500000D03*
X129540000Y-66040000D03*
X129540000Y-68580000D03*
X129540000Y-71120000D03*
X129540000Y-73660000D03*
X129540000Y-76200000D03*
X129540000Y-78740000D03*
X129540000Y-81280000D03*
X129540000Y-83820000D03*
X129540000Y-86360000D03*
X129540000Y-88900000D03*
X129540000Y-91440000D03*
X129540000Y-93980000D03*
X142240000Y-45720000D03*
X142240000Y-48260000D03*
X142240000Y-50800000D03*
X142240000Y-53340000D03*
X142240000Y-55880000D03*
X142240000Y-58420000D03*
X142240000Y-60960000D03*
X142240000Y-63500000D03*
X142240000Y-66040000D03*
X142240000Y-68580000D03*
X142240000Y-71120000D03*
X142240000Y-73660000D03*
X142240000Y-76200000D03*
X142240000Y-78740000D03*
X142240000Y-81280000D03*
X142240000Y-83820000D03*
X142240000Y-86360000D03*
X142240000Y-88900000D03*
X142240000Y-91440000D03*
X142240000Y-93980000D03*
D12*
X135050311Y-65828330D03*
X134696757Y-66181884D03*
X134343204Y-66535437D03*
X133989651Y-66888990D03*
X133636097Y-67242544D03*
X133282544Y-67596097D03*
X132928990Y-67949651D03*
X132575437Y-68303204D03*
X132221884Y-68656757D03*
X131868330Y-69010311D03*
D13*
X131868330Y-70689689D03*
X132221884Y-71043243D03*
X132575437Y-71396796D03*
X132928990Y-71750349D03*
X133282544Y-72103903D03*
X133636097Y-72457456D03*
X133989651Y-72811010D03*
X134343204Y-73164563D03*
X134696757Y-73518116D03*
X135050311Y-73871670D03*
D12*
X136729689Y-73871670D03*
X137083243Y-73518116D03*
X137436796Y-73164563D03*
X137790349Y-72811010D03*
X138143903Y-72457456D03*
X138497456Y-72103903D03*
X138851010Y-71750349D03*
X139204563Y-71396796D03*
X139558116Y-71043243D03*
X139911670Y-70689689D03*
D13*
X139911670Y-69010311D03*
X139558116Y-68656757D03*
X139204563Y-68303204D03*
X138851010Y-67949651D03*
X138497456Y-67596097D03*
X138143903Y-67242544D03*
X137790349Y-66888990D03*
X137436796Y-66535437D03*
X137083243Y-66181884D03*
X136729689Y-65828330D03*
D14*
X135890000Y-69850000D03*
D15*
X135890000Y-69850000D03*
D12*
X119810311Y-65828330D03*
X119456757Y-66181884D03*
X119103204Y-66535437D03*
X118749651Y-66888990D03*
X118396097Y-67242544D03*
X118042544Y-67596097D03*
X117688990Y-67949651D03*
X117335437Y-68303204D03*
X116981884Y-68656757D03*
X116628330Y-69010311D03*
D13*
X116628330Y-70689689D03*
X116981884Y-71043243D03*
X117335437Y-71396796D03*
X117688990Y-71750349D03*
X118042544Y-72103903D03*
X118396097Y-72457456D03*
X118749651Y-72811010D03*
X119103204Y-73164563D03*
X119456757Y-73518116D03*
X119810311Y-73871670D03*
D12*
X121489689Y-73871670D03*
X121843243Y-73518116D03*
X122196796Y-73164563D03*
X122550349Y-72811010D03*
X122903903Y-72457456D03*
X123257456Y-72103903D03*
X123611010Y-71750349D03*
X123964563Y-71396796D03*
X124318116Y-71043243D03*
X124671670Y-70689689D03*
D13*
X124671670Y-69010311D03*
X124318116Y-68656757D03*
X123964563Y-68303204D03*
X123611010Y-67949651D03*
X123257456Y-67596097D03*
X122903903Y-67242544D03*
X122550349Y-66888990D03*
X122196796Y-66535437D03*
X121843243Y-66181884D03*
X121489689Y-65828330D03*
D14*
X120650000Y-69850000D03*
D15*
X120650000Y-69850000D03*
D10*
X114300000Y-45720000D03*
D11*
X114300000Y-48260000D03*
X114300000Y-50800000D03*
X114300000Y-53340000D03*
X114300000Y-55880000D03*
X114300000Y-58420000D03*
X114300000Y-60960000D03*
X114300000Y-63500000D03*
X114300000Y-66040000D03*
X114300000Y-68580000D03*
X114300000Y-71120000D03*
X114300000Y-73660000D03*
X114300000Y-76200000D03*
X114300000Y-78740000D03*
X114300000Y-81280000D03*
X114300000Y-83820000D03*
X114300000Y-86360000D03*
X114300000Y-88900000D03*
X114300000Y-91440000D03*
X114300000Y-93980000D03*
X127000000Y-45720000D03*
X127000000Y-48260000D03*
X127000000Y-50800000D03*
X127000000Y-53340000D03*
X127000000Y-55880000D03*
X127000000Y-58420000D03*
X127000000Y-60960000D03*
X127000000Y-63500000D03*
X127000000Y-66040000D03*
X127000000Y-68580000D03*
X127000000Y-71120000D03*
X127000000Y-73660000D03*
X127000000Y-76200000D03*
X127000000Y-78740000D03*
X127000000Y-81280000D03*
X127000000Y-83820000D03*
X127000000Y-86360000D03*
X127000000Y-88900000D03*
X127000000Y-91440000D03*
X127000000Y-93980000D03*
D12*
X104570311Y-65828330D03*
X104216757Y-66181884D03*
X103863204Y-66535437D03*
X103509651Y-66888990D03*
X103156097Y-67242544D03*
X102802544Y-67596097D03*
X102448990Y-67949651D03*
X102095437Y-68303204D03*
X101741884Y-68656757D03*
X101388330Y-69010311D03*
D13*
X101388330Y-70689689D03*
X101741884Y-71043243D03*
X102095437Y-71396796D03*
X102448990Y-71750349D03*
X102802544Y-72103903D03*
X103156097Y-72457456D03*
X103509651Y-72811010D03*
X103863204Y-73164563D03*
X104216757Y-73518116D03*
X104570311Y-73871670D03*
D12*
X106249689Y-73871670D03*
X106603243Y-73518116D03*
X106956796Y-73164563D03*
X107310349Y-72811010D03*
X107663903Y-72457456D03*
X108017456Y-72103903D03*
X108371010Y-71750349D03*
X108724563Y-71396796D03*
X109078116Y-71043243D03*
X109431670Y-70689689D03*
D13*
X109431670Y-69010311D03*
X109078116Y-68656757D03*
X108724563Y-68303204D03*
X108371010Y-67949651D03*
X108017456Y-67596097D03*
X107663903Y-67242544D03*
X107310349Y-66888990D03*
X106956796Y-66535437D03*
X106603243Y-66181884D03*
X106249689Y-65828330D03*
D14*
X105410000Y-69850000D03*
D15*
X105410000Y-69850000D03*
D11*
X111760000Y-45720000D03*
X111760000Y-48260000D03*
X111760000Y-50800000D03*
X111760000Y-53340000D03*
X111760000Y-55880000D03*
X111760000Y-58420000D03*
X111760000Y-60960000D03*
X111760000Y-63500000D03*
X111760000Y-66040000D03*
X111760000Y-68580000D03*
X111760000Y-71120000D03*
X111760000Y-73660000D03*
X111760000Y-76200000D03*
X111760000Y-78740000D03*
X111760000Y-81280000D03*
X111760000Y-83820000D03*
X111760000Y-86360000D03*
X111760000Y-88900000D03*
X111760000Y-91440000D03*
X111760000Y-93980000D03*
D10*
X99060000Y-45720000D03*
D11*
X99060000Y-48260000D03*
X99060000Y-50800000D03*
X99060000Y-53340000D03*
X99060000Y-55880000D03*
X99060000Y-58420000D03*
X99060000Y-60960000D03*
X99060000Y-63500000D03*
X99060000Y-66040000D03*
X99060000Y-68580000D03*
X99060000Y-71120000D03*
X99060000Y-73660000D03*
X99060000Y-76200000D03*
X99060000Y-78740000D03*
X99060000Y-81280000D03*
X99060000Y-83820000D03*
X99060000Y-86360000D03*
X99060000Y-88900000D03*
X99060000Y-91440000D03*
X99060000Y-93980000D03*
X96520000Y-45720000D03*
X96520000Y-48260000D03*
X96520000Y-50800000D03*
X96520000Y-53340000D03*
X96520000Y-55880000D03*
X96520000Y-58420000D03*
X96520000Y-60960000D03*
X96520000Y-63500000D03*
X96520000Y-66040000D03*
X96520000Y-68580000D03*
X96520000Y-71120000D03*
X96520000Y-73660000D03*
X96520000Y-76200000D03*
X96520000Y-78740000D03*
X96520000Y-81280000D03*
X96520000Y-83820000D03*
X96520000Y-86360000D03*
X96520000Y-88900000D03*
X96520000Y-91440000D03*
X96520000Y-93980000D03*
D10*
X83820000Y-45720000D03*
D11*
X83820000Y-48260000D03*
X83820000Y-50800000D03*
X83820000Y-53340000D03*
X83820000Y-55880000D03*
X83820000Y-58420000D03*
X83820000Y-60960000D03*
X83820000Y-63500000D03*
X83820000Y-66040000D03*
X83820000Y-68580000D03*
X83820000Y-71120000D03*
X83820000Y-73660000D03*
X83820000Y-76200000D03*
X83820000Y-78740000D03*
X83820000Y-81280000D03*
X83820000Y-83820000D03*
X83820000Y-86360000D03*
X83820000Y-88900000D03*
X83820000Y-91440000D03*
X83820000Y-93980000D03*
D12*
X89330311Y-65828330D03*
X88976757Y-66181884D03*
X88623204Y-66535437D03*
X88269651Y-66888990D03*
X87916097Y-67242544D03*
X87562544Y-67596097D03*
X87208990Y-67949651D03*
X86855437Y-68303204D03*
X86501884Y-68656757D03*
X86148330Y-69010311D03*
D13*
X86148330Y-70689689D03*
X86501884Y-71043243D03*
X86855437Y-71396796D03*
X87208990Y-71750349D03*
X87562544Y-72103903D03*
X87916097Y-72457456D03*
X88269651Y-72811010D03*
X88623204Y-73164563D03*
X88976757Y-73518116D03*
X89330311Y-73871670D03*
D12*
X91009689Y-73871670D03*
X91363243Y-73518116D03*
X91716796Y-73164563D03*
X92070349Y-72811010D03*
X92423903Y-72457456D03*
X92777456Y-72103903D03*
X93131010Y-71750349D03*
X93484563Y-71396796D03*
X93838116Y-71043243D03*
X94191670Y-70689689D03*
D13*
X94191670Y-69010311D03*
X93838116Y-68656757D03*
X93484563Y-68303204D03*
X93131010Y-67949651D03*
X92777456Y-67596097D03*
X92423903Y-67242544D03*
X92070349Y-66888990D03*
X91716796Y-66535437D03*
X91363243Y-66181884D03*
X91009689Y-65828330D03*
D14*
X90170000Y-69850000D03*
D15*
X90170000Y-69850000D03*
D10*
X68580000Y-45720000D03*
D11*
X68580000Y-48260000D03*
X68580000Y-50800000D03*
X68580000Y-53340000D03*
X68580000Y-55880000D03*
X68580000Y-58420000D03*
X68580000Y-60960000D03*
X68580000Y-63500000D03*
X68580000Y-66040000D03*
X68580000Y-68580000D03*
X68580000Y-71120000D03*
X68580000Y-73660000D03*
X68580000Y-76200000D03*
X68580000Y-78740000D03*
X68580000Y-81280000D03*
X68580000Y-83820000D03*
X68580000Y-86360000D03*
X68580000Y-88900000D03*
X68580000Y-91440000D03*
X68580000Y-93980000D03*
X81280000Y-45720000D03*
X81280000Y-48260000D03*
X81280000Y-50800000D03*
X81280000Y-53340000D03*
X81280000Y-55880000D03*
X81280000Y-58420000D03*
X81280000Y-60960000D03*
X81280000Y-63500000D03*
X81280000Y-66040000D03*
X81280000Y-68580000D03*
X81280000Y-71120000D03*
X81280000Y-73660000D03*
X81280000Y-76200000D03*
X81280000Y-78740000D03*
X81280000Y-81280000D03*
X81280000Y-83820000D03*
X81280000Y-86360000D03*
X81280000Y-88900000D03*
X81280000Y-91440000D03*
X81280000Y-93980000D03*
D12*
X74090311Y-65828330D03*
X73736757Y-66181884D03*
X73383204Y-66535437D03*
X73029651Y-66888990D03*
X72676097Y-67242544D03*
X72322544Y-67596097D03*
X71968990Y-67949651D03*
X71615437Y-68303204D03*
X71261884Y-68656757D03*
X70908330Y-69010311D03*
D13*
X70908330Y-70689689D03*
X71261884Y-71043243D03*
X71615437Y-71396796D03*
X71968990Y-71750349D03*
X72322544Y-72103903D03*
X72676097Y-72457456D03*
X73029651Y-72811010D03*
X73383204Y-73164563D03*
X73736757Y-73518116D03*
X74090311Y-73871670D03*
D12*
X75769689Y-73871670D03*
X76123243Y-73518116D03*
X76476796Y-73164563D03*
X76830349Y-72811010D03*
X77183903Y-72457456D03*
X77537456Y-72103903D03*
X77891010Y-71750349D03*
X78244563Y-71396796D03*
X78598116Y-71043243D03*
X78951670Y-70689689D03*
D13*
X78951670Y-69010311D03*
X78598116Y-68656757D03*
X78244563Y-68303204D03*
X77891010Y-67949651D03*
X77537456Y-67596097D03*
X77183903Y-67242544D03*
X76830349Y-66888990D03*
X76476796Y-66535437D03*
X76123243Y-66181884D03*
X75769689Y-65828330D03*
D14*
X74930000Y-69850000D03*
D15*
X74930000Y-69850000D03*
D10*
X53340000Y-45720000D03*
D11*
X53340000Y-48260000D03*
X53340000Y-50800000D03*
X53340000Y-53340000D03*
X53340000Y-55880000D03*
X53340000Y-58420000D03*
X53340000Y-60960000D03*
X53340000Y-63500000D03*
X53340000Y-66040000D03*
X53340000Y-68580000D03*
X53340000Y-71120000D03*
X53340000Y-73660000D03*
X53340000Y-76200000D03*
X53340000Y-78740000D03*
X53340000Y-81280000D03*
X53340000Y-83820000D03*
X53340000Y-86360000D03*
X53340000Y-88900000D03*
X53340000Y-91440000D03*
X53340000Y-93980000D03*
X66040000Y-45720000D03*
X66040000Y-48260000D03*
X66040000Y-50800000D03*
X66040000Y-53340000D03*
X66040000Y-55880000D03*
X66040000Y-58420000D03*
X66040000Y-60960000D03*
X66040000Y-63500000D03*
X66040000Y-66040000D03*
X66040000Y-68580000D03*
X66040000Y-71120000D03*
X66040000Y-73660000D03*
X66040000Y-76200000D03*
X66040000Y-78740000D03*
X66040000Y-81280000D03*
X66040000Y-83820000D03*
X66040000Y-86360000D03*
X66040000Y-88900000D03*
X66040000Y-91440000D03*
X66040000Y-93980000D03*
D12*
X58850311Y-65828330D03*
X58496757Y-66181884D03*
X58143204Y-66535437D03*
X57789651Y-66888990D03*
X57436097Y-67242544D03*
X57082544Y-67596097D03*
X56728990Y-67949651D03*
X56375437Y-68303204D03*
X56021884Y-68656757D03*
X55668330Y-69010311D03*
D13*
X55668330Y-70689689D03*
X56021884Y-71043243D03*
X56375437Y-71396796D03*
X56728990Y-71750349D03*
X57082544Y-72103903D03*
X57436097Y-72457456D03*
X57789651Y-72811010D03*
X58143204Y-73164563D03*
X58496757Y-73518116D03*
X58850311Y-73871670D03*
D12*
X60529689Y-73871670D03*
X60883243Y-73518116D03*
X61236796Y-73164563D03*
X61590349Y-72811010D03*
X61943903Y-72457456D03*
X62297456Y-72103903D03*
X62651010Y-71750349D03*
X63004563Y-71396796D03*
X63358116Y-71043243D03*
X63711670Y-70689689D03*
D13*
X63711670Y-69010311D03*
X63358116Y-68656757D03*
X63004563Y-68303204D03*
X62651010Y-67949651D03*
X62297456Y-67596097D03*
X61943903Y-67242544D03*
X61590349Y-66888990D03*
X61236796Y-66535437D03*
X60883243Y-66181884D03*
X60529689Y-65828330D03*
D14*
X59690000Y-69850000D03*
D15*
X59690000Y-69850000D03*
M02*
