M48
; DRILL file {KiCad 7.0.6} date Sun Aug 27 21:43:46 2023
; FORMAT={-:-/ absolute / metric / decimal}
; #@! TF.CreationDate,2023-08-27T21:43:46+09:00
; #@! TF.GenerationSoftware,Kicad,Pcbnew,7.0.6
; #@! TF.FileFunction,Plated,1,2,PTH
FMAT,2
METRIC
; #@! TA.AperFunction,Plated,PTH,ComponentDrill
T1C0.900
; #@! TA.AperFunction,Plated,PTH,ComponentDrill
T2C3.200
%
G90
G05
T1
X53.34Y-45.72
X53.34Y-48.26
X53.34Y-50.8
X53.34Y-53.34
X53.34Y-55.88
X53.34Y-58.42
X53.34Y-60.96
X53.34Y-63.5
X53.34Y-66.04
X53.34Y-68.58
X53.34Y-71.12
X53.34Y-73.66
X53.34Y-76.2
X53.34Y-78.74
X53.34Y-81.28
X53.34Y-83.82
X53.34Y-86.36
X53.34Y-88.9
X53.34Y-91.44
X53.34Y-93.98
X53.34Y-96.52
X53.34Y-99.06
X53.34Y-101.6
X53.34Y-104.14
X53.34Y-106.68
X53.34Y-109.22
X53.34Y-111.76
X53.34Y-114.3
X53.34Y-116.84
X53.34Y-119.38
X53.34Y-121.92
X53.34Y-124.46
X53.34Y-127.0
X53.34Y-129.54
X53.34Y-132.08
X53.34Y-134.62
X53.34Y-137.16
X53.34Y-139.7
X53.34Y-142.24
X53.34Y-144.78
X66.04Y-45.72
X66.04Y-48.26
X66.04Y-50.8
X66.04Y-53.34
X66.04Y-55.88
X66.04Y-58.42
X66.04Y-60.96
X66.04Y-63.5
X66.04Y-66.04
X66.04Y-68.58
X66.04Y-71.12
X66.04Y-73.66
X66.04Y-76.2
X66.04Y-78.74
X66.04Y-81.28
X66.04Y-83.82
X66.04Y-86.36
X66.04Y-88.9
X66.04Y-91.44
X66.04Y-93.98
X66.04Y-96.52
X66.04Y-99.06
X66.04Y-101.6
X66.04Y-104.14
X66.04Y-106.68
X66.04Y-109.22
X66.04Y-111.76
X66.04Y-114.3
X66.04Y-116.84
X66.04Y-119.38
X66.04Y-121.92
X66.04Y-124.46
X66.04Y-127.0
X66.04Y-129.54
X66.04Y-132.08
X66.04Y-134.62
X66.04Y-137.16
X66.04Y-139.7
X66.04Y-142.24
X66.04Y-144.78
X68.58Y-45.72
X68.58Y-48.26
X68.58Y-50.8
X68.58Y-53.34
X68.58Y-55.88
X68.58Y-58.42
X68.58Y-60.96
X68.58Y-63.5
X68.58Y-66.04
X68.58Y-68.58
X68.58Y-71.12
X68.58Y-73.66
X68.58Y-76.2
X68.58Y-78.74
X68.58Y-81.28
X68.58Y-83.82
X68.58Y-86.36
X68.58Y-88.9
X68.58Y-91.44
X68.58Y-93.98
X68.58Y-96.52
X68.58Y-99.06
X68.58Y-101.6
X68.58Y-104.14
X68.58Y-106.68
X68.58Y-109.22
X68.58Y-111.76
X68.58Y-114.3
X68.58Y-116.84
X68.58Y-119.38
X68.58Y-121.92
X68.58Y-124.46
X68.58Y-127.0
X68.58Y-129.54
X68.58Y-132.08
X68.58Y-134.62
X68.58Y-137.16
X68.58Y-139.7
X68.58Y-142.24
X68.58Y-144.78
X81.28Y-45.72
X81.28Y-48.26
X81.28Y-50.8
X81.28Y-53.34
X81.28Y-55.88
X81.28Y-58.42
X81.28Y-60.96
X81.28Y-63.5
X81.28Y-66.04
X81.28Y-68.58
X81.28Y-71.12
X81.28Y-73.66
X81.28Y-76.2
X81.28Y-78.74
X81.28Y-81.28
X81.28Y-83.82
X81.28Y-86.36
X81.28Y-88.9
X81.28Y-91.44
X81.28Y-93.98
X81.28Y-96.52
X81.28Y-99.06
X81.28Y-101.6
X81.28Y-104.14
X81.28Y-106.68
X81.28Y-109.22
X81.28Y-111.76
X81.28Y-114.3
X81.28Y-116.84
X81.28Y-119.38
X81.28Y-121.92
X81.28Y-124.46
X81.28Y-127.0
X81.28Y-129.54
X81.28Y-132.08
X81.28Y-134.62
X81.28Y-137.16
X81.28Y-139.7
X81.28Y-142.24
X81.28Y-144.78
X83.82Y-45.72
X83.82Y-48.26
X83.82Y-50.8
X83.82Y-53.34
X83.82Y-55.88
X83.82Y-58.42
X83.82Y-60.96
X83.82Y-63.5
X83.82Y-66.04
X83.82Y-68.58
X83.82Y-71.12
X83.82Y-73.66
X83.82Y-76.2
X83.82Y-78.74
X83.82Y-81.28
X83.82Y-83.82
X83.82Y-86.36
X83.82Y-88.9
X83.82Y-91.44
X83.82Y-93.98
X83.82Y-96.52
X83.82Y-99.06
X83.82Y-101.6
X83.82Y-104.14
X83.82Y-106.68
X83.82Y-109.22
X83.82Y-111.76
X83.82Y-114.3
X83.82Y-116.84
X83.82Y-119.38
X83.82Y-121.92
X83.82Y-124.46
X83.82Y-127.0
X83.82Y-129.54
X83.82Y-132.08
X83.82Y-134.62
X83.82Y-137.16
X83.82Y-139.7
X83.82Y-142.24
X83.82Y-144.78
X96.52Y-45.72
X96.52Y-48.26
X96.52Y-50.8
X96.52Y-53.34
X96.52Y-55.88
X96.52Y-58.42
X96.52Y-60.96
X96.52Y-63.5
X96.52Y-66.04
X96.52Y-68.58
X96.52Y-71.12
X96.52Y-73.66
X96.52Y-76.2
X96.52Y-78.74
X96.52Y-81.28
X96.52Y-83.82
X96.52Y-86.36
X96.52Y-88.9
X96.52Y-91.44
X96.52Y-93.98
X96.52Y-96.52
X96.52Y-99.06
X96.52Y-101.6
X96.52Y-104.14
X96.52Y-106.68
X96.52Y-109.22
X96.52Y-111.76
X96.52Y-114.3
X96.52Y-116.84
X96.52Y-119.38
X96.52Y-121.92
X96.52Y-124.46
X96.52Y-127.0
X96.52Y-129.54
X96.52Y-132.08
X96.52Y-134.62
X96.52Y-137.16
X96.52Y-139.7
X96.52Y-142.24
X96.52Y-144.78
X99.06Y-45.72
X99.06Y-48.26
X99.06Y-50.8
X99.06Y-53.34
X99.06Y-55.88
X99.06Y-58.42
X99.06Y-60.96
X99.06Y-63.5
X99.06Y-66.04
X99.06Y-68.58
X99.06Y-71.12
X99.06Y-73.66
X99.06Y-76.2
X99.06Y-78.74
X99.06Y-81.28
X99.06Y-83.82
X99.06Y-86.36
X99.06Y-88.9
X99.06Y-91.44
X99.06Y-93.98
X99.06Y-96.52
X99.06Y-99.06
X99.06Y-101.6
X99.06Y-104.14
X99.06Y-106.68
X99.06Y-109.22
X99.06Y-111.76
X99.06Y-114.3
X99.06Y-116.84
X99.06Y-119.38
X99.06Y-121.92
X99.06Y-124.46
X99.06Y-127.0
X99.06Y-129.54
X99.06Y-132.08
X99.06Y-134.62
X99.06Y-137.16
X99.06Y-139.7
X99.06Y-142.24
X99.06Y-144.78
X111.76Y-45.72
X111.76Y-48.26
X111.76Y-50.8
X111.76Y-53.34
X111.76Y-55.88
X111.76Y-58.42
X111.76Y-60.96
X111.76Y-63.5
X111.76Y-66.04
X111.76Y-68.58
X111.76Y-71.12
X111.76Y-73.66
X111.76Y-76.2
X111.76Y-78.74
X111.76Y-81.28
X111.76Y-83.82
X111.76Y-86.36
X111.76Y-88.9
X111.76Y-91.44
X111.76Y-93.98
X111.76Y-96.52
X111.76Y-99.06
X111.76Y-101.6
X111.76Y-104.14
X111.76Y-106.68
X111.76Y-109.22
X111.76Y-111.76
X111.76Y-114.3
X111.76Y-116.84
X111.76Y-119.38
X111.76Y-121.92
X111.76Y-124.46
X111.76Y-127.0
X111.76Y-129.54
X111.76Y-132.08
X111.76Y-134.62
X111.76Y-137.16
X111.76Y-139.7
X111.76Y-142.24
X111.76Y-144.78
X114.3Y-45.72
X114.3Y-48.26
X114.3Y-50.8
X114.3Y-53.34
X114.3Y-55.88
X114.3Y-58.42
X114.3Y-60.96
X114.3Y-63.5
X114.3Y-66.04
X114.3Y-68.58
X114.3Y-71.12
X114.3Y-73.66
X114.3Y-76.2
X114.3Y-78.74
X114.3Y-81.28
X114.3Y-83.82
X114.3Y-86.36
X114.3Y-88.9
X114.3Y-91.44
X114.3Y-93.98
X114.3Y-96.52
X114.3Y-99.06
X114.3Y-101.6
X114.3Y-104.14
X114.3Y-106.68
X114.3Y-109.22
X114.3Y-111.76
X114.3Y-114.3
X114.3Y-116.84
X114.3Y-119.38
X114.3Y-121.92
X114.3Y-124.46
X114.3Y-127.0
X114.3Y-129.54
X114.3Y-132.08
X114.3Y-134.62
X114.3Y-137.16
X114.3Y-139.7
X114.3Y-142.24
X114.3Y-144.78
X127.0Y-45.72
X127.0Y-48.26
X127.0Y-50.8
X127.0Y-53.34
X127.0Y-55.88
X127.0Y-58.42
X127.0Y-60.96
X127.0Y-63.5
X127.0Y-66.04
X127.0Y-68.58
X127.0Y-71.12
X127.0Y-73.66
X127.0Y-76.2
X127.0Y-78.74
X127.0Y-81.28
X127.0Y-83.82
X127.0Y-86.36
X127.0Y-88.9
X127.0Y-91.44
X127.0Y-93.98
X127.0Y-96.52
X127.0Y-99.06
X127.0Y-101.6
X127.0Y-104.14
X127.0Y-106.68
X127.0Y-109.22
X127.0Y-111.76
X127.0Y-114.3
X127.0Y-116.84
X127.0Y-119.38
X127.0Y-121.92
X127.0Y-124.46
X127.0Y-127.0
X127.0Y-129.54
X127.0Y-132.08
X127.0Y-134.62
X127.0Y-137.16
X127.0Y-139.7
X127.0Y-142.24
X127.0Y-144.78
X129.54Y-45.72
X129.54Y-48.26
X129.54Y-50.8
X129.54Y-53.34
X129.54Y-55.88
X129.54Y-58.42
X129.54Y-60.96
X129.54Y-63.5
X129.54Y-66.04
X129.54Y-68.58
X129.54Y-71.12
X129.54Y-73.66
X129.54Y-76.2
X129.54Y-78.74
X129.54Y-81.28
X129.54Y-83.82
X129.54Y-86.36
X129.54Y-88.9
X129.54Y-91.44
X129.54Y-93.98
X129.54Y-96.52
X129.54Y-99.06
X129.54Y-101.6
X129.54Y-104.14
X129.54Y-106.68
X129.54Y-109.22
X129.54Y-111.76
X129.54Y-114.3
X129.54Y-116.84
X129.54Y-119.38
X129.54Y-121.92
X129.54Y-124.46
X129.54Y-127.0
X129.54Y-129.54
X129.54Y-132.08
X129.54Y-134.62
X129.54Y-137.16
X129.54Y-139.7
X129.54Y-142.24
X129.54Y-144.78
X142.24Y-45.72
X142.24Y-48.26
X142.24Y-50.8
X142.24Y-53.34
X142.24Y-55.88
X142.24Y-58.42
X142.24Y-60.96
X142.24Y-63.5
X142.24Y-66.04
X142.24Y-68.58
X142.24Y-71.12
X142.24Y-73.66
X142.24Y-76.2
X142.24Y-78.74
X142.24Y-81.28
X142.24Y-83.82
X142.24Y-86.36
X142.24Y-88.9
X142.24Y-91.44
X142.24Y-93.98
X142.24Y-96.52
X142.24Y-99.06
X142.24Y-101.6
X142.24Y-104.14
X142.24Y-106.68
X142.24Y-109.22
X142.24Y-111.76
X142.24Y-114.3
X142.24Y-116.84
X142.24Y-119.38
X142.24Y-121.92
X142.24Y-124.46
X142.24Y-127.0
X142.24Y-129.54
X142.24Y-132.08
X142.24Y-134.62
X142.24Y-137.16
X142.24Y-139.7
X142.24Y-142.24
X142.24Y-144.78
T2
X59.69Y-69.85
X59.69Y-120.65
X74.93Y-69.85
X74.93Y-120.65
X90.17Y-69.85
X90.17Y-120.65
X105.41Y-69.85
X105.41Y-120.65
X120.65Y-69.85
X120.65Y-120.65
X135.89Y-69.85
X135.89Y-120.65
T0
M30
