%TF.GenerationSoftware,KiCad,Pcbnew,7.0.6*%
%TF.CreationDate,2023-08-27T21:43:50+09:00*%
%TF.ProjectId,QFN40_6x6_DIP_panelized,51464e34-305f-4367-9836-5f4449505f70,rev?*%
%TF.SameCoordinates,Original*%
%TF.FileFunction,Other,ECO2*%
%FSLAX46Y46*%
G04 Gerber Fmt 4.6, Leading zero omitted, Abs format (unit mm)*
G04 Created by KiCad (PCBNEW 7.0.6) date 2023-08-27 21:43:50*
%MOMM*%
%LPD*%
G01*
G04 APERTURE LIST*
%ADD10C,0.150000*%
G04 APERTURE END LIST*
D10*
X128815180Y-29403922D02*
X127815180Y-29737255D01*
X127815180Y-29737255D02*
X128815180Y-30070588D01*
X128196133Y-30403922D02*
X128196133Y-31165827D01*
X127910419Y-32213445D02*
X127862800Y-32165826D01*
X127862800Y-32165826D02*
X127815180Y-32022969D01*
X127815180Y-32022969D02*
X127815180Y-31927731D01*
X127815180Y-31927731D02*
X127862800Y-31784874D01*
X127862800Y-31784874D02*
X127958038Y-31689636D01*
X127958038Y-31689636D02*
X128053276Y-31642017D01*
X128053276Y-31642017D02*
X128243752Y-31594398D01*
X128243752Y-31594398D02*
X128386609Y-31594398D01*
X128386609Y-31594398D02*
X128577085Y-31642017D01*
X128577085Y-31642017D02*
X128672323Y-31689636D01*
X128672323Y-31689636D02*
X128767561Y-31784874D01*
X128767561Y-31784874D02*
X128815180Y-31927731D01*
X128815180Y-31927731D02*
X128815180Y-32022969D01*
X128815180Y-32022969D02*
X128767561Y-32165826D01*
X128767561Y-32165826D02*
X128719942Y-32213445D01*
X128481847Y-33070588D02*
X127815180Y-33070588D01*
X128481847Y-32642017D02*
X127958038Y-32642017D01*
X127958038Y-32642017D02*
X127862800Y-32689636D01*
X127862800Y-32689636D02*
X127815180Y-32784874D01*
X127815180Y-32784874D02*
X127815180Y-32927731D01*
X127815180Y-32927731D02*
X127862800Y-33022969D01*
X127862800Y-33022969D02*
X127910419Y-33070588D01*
X128481847Y-33403922D02*
X128481847Y-33784874D01*
X128815180Y-33546779D02*
X127958038Y-33546779D01*
X127958038Y-33546779D02*
X127862800Y-33594398D01*
X127862800Y-33594398D02*
X127815180Y-33689636D01*
X127815180Y-33689636D02*
X127815180Y-33784874D01*
X128196133Y-34880113D02*
X128196133Y-35642018D01*
X128196133Y-36118208D02*
X128196133Y-36880113D01*
X128481847Y-37356303D02*
X128196133Y-38118208D01*
X128196133Y-38118208D02*
X127910419Y-37356303D01*
X113575180Y-29403922D02*
X112575180Y-29737255D01*
X112575180Y-29737255D02*
X113575180Y-30070588D01*
X112956133Y-30403922D02*
X112956133Y-31165827D01*
X112670419Y-32213445D02*
X112622800Y-32165826D01*
X112622800Y-32165826D02*
X112575180Y-32022969D01*
X112575180Y-32022969D02*
X112575180Y-31927731D01*
X112575180Y-31927731D02*
X112622800Y-31784874D01*
X112622800Y-31784874D02*
X112718038Y-31689636D01*
X112718038Y-31689636D02*
X112813276Y-31642017D01*
X112813276Y-31642017D02*
X113003752Y-31594398D01*
X113003752Y-31594398D02*
X113146609Y-31594398D01*
X113146609Y-31594398D02*
X113337085Y-31642017D01*
X113337085Y-31642017D02*
X113432323Y-31689636D01*
X113432323Y-31689636D02*
X113527561Y-31784874D01*
X113527561Y-31784874D02*
X113575180Y-31927731D01*
X113575180Y-31927731D02*
X113575180Y-32022969D01*
X113575180Y-32022969D02*
X113527561Y-32165826D01*
X113527561Y-32165826D02*
X113479942Y-32213445D01*
X113241847Y-33070588D02*
X112575180Y-33070588D01*
X113241847Y-32642017D02*
X112718038Y-32642017D01*
X112718038Y-32642017D02*
X112622800Y-32689636D01*
X112622800Y-32689636D02*
X112575180Y-32784874D01*
X112575180Y-32784874D02*
X112575180Y-32927731D01*
X112575180Y-32927731D02*
X112622800Y-33022969D01*
X112622800Y-33022969D02*
X112670419Y-33070588D01*
X113241847Y-33403922D02*
X113241847Y-33784874D01*
X113575180Y-33546779D02*
X112718038Y-33546779D01*
X112718038Y-33546779D02*
X112622800Y-33594398D01*
X112622800Y-33594398D02*
X112575180Y-33689636D01*
X112575180Y-33689636D02*
X112575180Y-33784874D01*
X112956133Y-34880113D02*
X112956133Y-35642018D01*
X112956133Y-36118208D02*
X112956133Y-36880113D01*
X113241847Y-37356303D02*
X112956133Y-38118208D01*
X112956133Y-38118208D02*
X112670419Y-37356303D01*
X52615180Y-29403922D02*
X51615180Y-29737255D01*
X51615180Y-29737255D02*
X52615180Y-30070588D01*
X51996133Y-30403922D02*
X51996133Y-31165827D01*
X51710419Y-32213445D02*
X51662800Y-32165826D01*
X51662800Y-32165826D02*
X51615180Y-32022969D01*
X51615180Y-32022969D02*
X51615180Y-31927731D01*
X51615180Y-31927731D02*
X51662800Y-31784874D01*
X51662800Y-31784874D02*
X51758038Y-31689636D01*
X51758038Y-31689636D02*
X51853276Y-31642017D01*
X51853276Y-31642017D02*
X52043752Y-31594398D01*
X52043752Y-31594398D02*
X52186609Y-31594398D01*
X52186609Y-31594398D02*
X52377085Y-31642017D01*
X52377085Y-31642017D02*
X52472323Y-31689636D01*
X52472323Y-31689636D02*
X52567561Y-31784874D01*
X52567561Y-31784874D02*
X52615180Y-31927731D01*
X52615180Y-31927731D02*
X52615180Y-32022969D01*
X52615180Y-32022969D02*
X52567561Y-32165826D01*
X52567561Y-32165826D02*
X52519942Y-32213445D01*
X52281847Y-33070588D02*
X51615180Y-33070588D01*
X52281847Y-32642017D02*
X51758038Y-32642017D01*
X51758038Y-32642017D02*
X51662800Y-32689636D01*
X51662800Y-32689636D02*
X51615180Y-32784874D01*
X51615180Y-32784874D02*
X51615180Y-32927731D01*
X51615180Y-32927731D02*
X51662800Y-33022969D01*
X51662800Y-33022969D02*
X51710419Y-33070588D01*
X52281847Y-33403922D02*
X52281847Y-33784874D01*
X52615180Y-33546779D02*
X51758038Y-33546779D01*
X51758038Y-33546779D02*
X51662800Y-33594398D01*
X51662800Y-33594398D02*
X51615180Y-33689636D01*
X51615180Y-33689636D02*
X51615180Y-33784874D01*
X51996133Y-34880113D02*
X51996133Y-35642018D01*
X51996133Y-36118208D02*
X51996133Y-36880113D01*
X52281847Y-37356303D02*
X51996133Y-38118208D01*
X51996133Y-38118208D02*
X51710419Y-37356303D01*
X67855180Y-29403922D02*
X66855180Y-29737255D01*
X66855180Y-29737255D02*
X67855180Y-30070588D01*
X67236133Y-30403922D02*
X67236133Y-31165827D01*
X66950419Y-32213445D02*
X66902800Y-32165826D01*
X66902800Y-32165826D02*
X66855180Y-32022969D01*
X66855180Y-32022969D02*
X66855180Y-31927731D01*
X66855180Y-31927731D02*
X66902800Y-31784874D01*
X66902800Y-31784874D02*
X66998038Y-31689636D01*
X66998038Y-31689636D02*
X67093276Y-31642017D01*
X67093276Y-31642017D02*
X67283752Y-31594398D01*
X67283752Y-31594398D02*
X67426609Y-31594398D01*
X67426609Y-31594398D02*
X67617085Y-31642017D01*
X67617085Y-31642017D02*
X67712323Y-31689636D01*
X67712323Y-31689636D02*
X67807561Y-31784874D01*
X67807561Y-31784874D02*
X67855180Y-31927731D01*
X67855180Y-31927731D02*
X67855180Y-32022969D01*
X67855180Y-32022969D02*
X67807561Y-32165826D01*
X67807561Y-32165826D02*
X67759942Y-32213445D01*
X67521847Y-33070588D02*
X66855180Y-33070588D01*
X67521847Y-32642017D02*
X66998038Y-32642017D01*
X66998038Y-32642017D02*
X66902800Y-32689636D01*
X66902800Y-32689636D02*
X66855180Y-32784874D01*
X66855180Y-32784874D02*
X66855180Y-32927731D01*
X66855180Y-32927731D02*
X66902800Y-33022969D01*
X66902800Y-33022969D02*
X66950419Y-33070588D01*
X67521847Y-33403922D02*
X67521847Y-33784874D01*
X67855180Y-33546779D02*
X66998038Y-33546779D01*
X66998038Y-33546779D02*
X66902800Y-33594398D01*
X66902800Y-33594398D02*
X66855180Y-33689636D01*
X66855180Y-33689636D02*
X66855180Y-33784874D01*
X67236133Y-34880113D02*
X67236133Y-35642018D01*
X67236133Y-36118208D02*
X67236133Y-36880113D01*
X67521847Y-37356303D02*
X67236133Y-38118208D01*
X67236133Y-38118208D02*
X66950419Y-37356303D01*
X37023922Y-43904819D02*
X37357255Y-44904819D01*
X37357255Y-44904819D02*
X37690588Y-43904819D01*
X38023922Y-44523866D02*
X38785827Y-44523866D01*
X39833445Y-44809580D02*
X39785826Y-44857200D01*
X39785826Y-44857200D02*
X39642969Y-44904819D01*
X39642969Y-44904819D02*
X39547731Y-44904819D01*
X39547731Y-44904819D02*
X39404874Y-44857200D01*
X39404874Y-44857200D02*
X39309636Y-44761961D01*
X39309636Y-44761961D02*
X39262017Y-44666723D01*
X39262017Y-44666723D02*
X39214398Y-44476247D01*
X39214398Y-44476247D02*
X39214398Y-44333390D01*
X39214398Y-44333390D02*
X39262017Y-44142914D01*
X39262017Y-44142914D02*
X39309636Y-44047676D01*
X39309636Y-44047676D02*
X39404874Y-43952438D01*
X39404874Y-43952438D02*
X39547731Y-43904819D01*
X39547731Y-43904819D02*
X39642969Y-43904819D01*
X39642969Y-43904819D02*
X39785826Y-43952438D01*
X39785826Y-43952438D02*
X39833445Y-44000057D01*
X40690588Y-44238152D02*
X40690588Y-44904819D01*
X40262017Y-44238152D02*
X40262017Y-44761961D01*
X40262017Y-44761961D02*
X40309636Y-44857200D01*
X40309636Y-44857200D02*
X40404874Y-44904819D01*
X40404874Y-44904819D02*
X40547731Y-44904819D01*
X40547731Y-44904819D02*
X40642969Y-44857200D01*
X40642969Y-44857200D02*
X40690588Y-44809580D01*
X41023922Y-44238152D02*
X41404874Y-44238152D01*
X41166779Y-43904819D02*
X41166779Y-44761961D01*
X41166779Y-44761961D02*
X41214398Y-44857200D01*
X41214398Y-44857200D02*
X41309636Y-44904819D01*
X41309636Y-44904819D02*
X41404874Y-44904819D01*
X42500113Y-44523866D02*
X43262018Y-44523866D01*
X43738208Y-44523866D02*
X44500113Y-44523866D01*
X44976303Y-44238152D02*
X45738208Y-44523866D01*
X45738208Y-44523866D02*
X44976303Y-44809580D01*
X37023922Y-145504819D02*
X37357255Y-146504819D01*
X37357255Y-146504819D02*
X37690588Y-145504819D01*
X38023922Y-146123866D02*
X38785827Y-146123866D01*
X39833445Y-146409580D02*
X39785826Y-146457200D01*
X39785826Y-146457200D02*
X39642969Y-146504819D01*
X39642969Y-146504819D02*
X39547731Y-146504819D01*
X39547731Y-146504819D02*
X39404874Y-146457200D01*
X39404874Y-146457200D02*
X39309636Y-146361961D01*
X39309636Y-146361961D02*
X39262017Y-146266723D01*
X39262017Y-146266723D02*
X39214398Y-146076247D01*
X39214398Y-146076247D02*
X39214398Y-145933390D01*
X39214398Y-145933390D02*
X39262017Y-145742914D01*
X39262017Y-145742914D02*
X39309636Y-145647676D01*
X39309636Y-145647676D02*
X39404874Y-145552438D01*
X39404874Y-145552438D02*
X39547731Y-145504819D01*
X39547731Y-145504819D02*
X39642969Y-145504819D01*
X39642969Y-145504819D02*
X39785826Y-145552438D01*
X39785826Y-145552438D02*
X39833445Y-145600057D01*
X40690588Y-145838152D02*
X40690588Y-146504819D01*
X40262017Y-145838152D02*
X40262017Y-146361961D01*
X40262017Y-146361961D02*
X40309636Y-146457200D01*
X40309636Y-146457200D02*
X40404874Y-146504819D01*
X40404874Y-146504819D02*
X40547731Y-146504819D01*
X40547731Y-146504819D02*
X40642969Y-146457200D01*
X40642969Y-146457200D02*
X40690588Y-146409580D01*
X41023922Y-145838152D02*
X41404874Y-145838152D01*
X41166779Y-145504819D02*
X41166779Y-146361961D01*
X41166779Y-146361961D02*
X41214398Y-146457200D01*
X41214398Y-146457200D02*
X41309636Y-146504819D01*
X41309636Y-146504819D02*
X41404874Y-146504819D01*
X42500113Y-146123866D02*
X43262018Y-146123866D01*
X43738208Y-146123866D02*
X44500113Y-146123866D01*
X44976303Y-145838152D02*
X45738208Y-146123866D01*
X45738208Y-146123866D02*
X44976303Y-146409580D01*
X144055180Y-29403922D02*
X143055180Y-29737255D01*
X143055180Y-29737255D02*
X144055180Y-30070588D01*
X143436133Y-30403922D02*
X143436133Y-31165827D01*
X143150419Y-32213445D02*
X143102800Y-32165826D01*
X143102800Y-32165826D02*
X143055180Y-32022969D01*
X143055180Y-32022969D02*
X143055180Y-31927731D01*
X143055180Y-31927731D02*
X143102800Y-31784874D01*
X143102800Y-31784874D02*
X143198038Y-31689636D01*
X143198038Y-31689636D02*
X143293276Y-31642017D01*
X143293276Y-31642017D02*
X143483752Y-31594398D01*
X143483752Y-31594398D02*
X143626609Y-31594398D01*
X143626609Y-31594398D02*
X143817085Y-31642017D01*
X143817085Y-31642017D02*
X143912323Y-31689636D01*
X143912323Y-31689636D02*
X144007561Y-31784874D01*
X144007561Y-31784874D02*
X144055180Y-31927731D01*
X144055180Y-31927731D02*
X144055180Y-32022969D01*
X144055180Y-32022969D02*
X144007561Y-32165826D01*
X144007561Y-32165826D02*
X143959942Y-32213445D01*
X143721847Y-33070588D02*
X143055180Y-33070588D01*
X143721847Y-32642017D02*
X143198038Y-32642017D01*
X143198038Y-32642017D02*
X143102800Y-32689636D01*
X143102800Y-32689636D02*
X143055180Y-32784874D01*
X143055180Y-32784874D02*
X143055180Y-32927731D01*
X143055180Y-32927731D02*
X143102800Y-33022969D01*
X143102800Y-33022969D02*
X143150419Y-33070588D01*
X143721847Y-33403922D02*
X143721847Y-33784874D01*
X144055180Y-33546779D02*
X143198038Y-33546779D01*
X143198038Y-33546779D02*
X143102800Y-33594398D01*
X143102800Y-33594398D02*
X143055180Y-33689636D01*
X143055180Y-33689636D02*
X143055180Y-33784874D01*
X143436133Y-34880113D02*
X143436133Y-35642018D01*
X143436133Y-36118208D02*
X143436133Y-36880113D01*
X143721847Y-37356303D02*
X143436133Y-38118208D01*
X143436133Y-38118208D02*
X143150419Y-37356303D01*
X37023922Y-94704819D02*
X37357255Y-95704819D01*
X37357255Y-95704819D02*
X37690588Y-94704819D01*
X38023922Y-95323866D02*
X38785827Y-95323866D01*
X39833445Y-95609580D02*
X39785826Y-95657200D01*
X39785826Y-95657200D02*
X39642969Y-95704819D01*
X39642969Y-95704819D02*
X39547731Y-95704819D01*
X39547731Y-95704819D02*
X39404874Y-95657200D01*
X39404874Y-95657200D02*
X39309636Y-95561961D01*
X39309636Y-95561961D02*
X39262017Y-95466723D01*
X39262017Y-95466723D02*
X39214398Y-95276247D01*
X39214398Y-95276247D02*
X39214398Y-95133390D01*
X39214398Y-95133390D02*
X39262017Y-94942914D01*
X39262017Y-94942914D02*
X39309636Y-94847676D01*
X39309636Y-94847676D02*
X39404874Y-94752438D01*
X39404874Y-94752438D02*
X39547731Y-94704819D01*
X39547731Y-94704819D02*
X39642969Y-94704819D01*
X39642969Y-94704819D02*
X39785826Y-94752438D01*
X39785826Y-94752438D02*
X39833445Y-94800057D01*
X40690588Y-95038152D02*
X40690588Y-95704819D01*
X40262017Y-95038152D02*
X40262017Y-95561961D01*
X40262017Y-95561961D02*
X40309636Y-95657200D01*
X40309636Y-95657200D02*
X40404874Y-95704819D01*
X40404874Y-95704819D02*
X40547731Y-95704819D01*
X40547731Y-95704819D02*
X40642969Y-95657200D01*
X40642969Y-95657200D02*
X40690588Y-95609580D01*
X41023922Y-95038152D02*
X41404874Y-95038152D01*
X41166779Y-94704819D02*
X41166779Y-95561961D01*
X41166779Y-95561961D02*
X41214398Y-95657200D01*
X41214398Y-95657200D02*
X41309636Y-95704819D01*
X41309636Y-95704819D02*
X41404874Y-95704819D01*
X42500113Y-95323866D02*
X43262018Y-95323866D01*
X43738208Y-95323866D02*
X44500113Y-95323866D01*
X44976303Y-95038152D02*
X45738208Y-95323866D01*
X45738208Y-95323866D02*
X44976303Y-95609580D01*
X83095180Y-29403922D02*
X82095180Y-29737255D01*
X82095180Y-29737255D02*
X83095180Y-30070588D01*
X82476133Y-30403922D02*
X82476133Y-31165827D01*
X82190419Y-32213445D02*
X82142800Y-32165826D01*
X82142800Y-32165826D02*
X82095180Y-32022969D01*
X82095180Y-32022969D02*
X82095180Y-31927731D01*
X82095180Y-31927731D02*
X82142800Y-31784874D01*
X82142800Y-31784874D02*
X82238038Y-31689636D01*
X82238038Y-31689636D02*
X82333276Y-31642017D01*
X82333276Y-31642017D02*
X82523752Y-31594398D01*
X82523752Y-31594398D02*
X82666609Y-31594398D01*
X82666609Y-31594398D02*
X82857085Y-31642017D01*
X82857085Y-31642017D02*
X82952323Y-31689636D01*
X82952323Y-31689636D02*
X83047561Y-31784874D01*
X83047561Y-31784874D02*
X83095180Y-31927731D01*
X83095180Y-31927731D02*
X83095180Y-32022969D01*
X83095180Y-32022969D02*
X83047561Y-32165826D01*
X83047561Y-32165826D02*
X82999942Y-32213445D01*
X82761847Y-33070588D02*
X82095180Y-33070588D01*
X82761847Y-32642017D02*
X82238038Y-32642017D01*
X82238038Y-32642017D02*
X82142800Y-32689636D01*
X82142800Y-32689636D02*
X82095180Y-32784874D01*
X82095180Y-32784874D02*
X82095180Y-32927731D01*
X82095180Y-32927731D02*
X82142800Y-33022969D01*
X82142800Y-33022969D02*
X82190419Y-33070588D01*
X82761847Y-33403922D02*
X82761847Y-33784874D01*
X83095180Y-33546779D02*
X82238038Y-33546779D01*
X82238038Y-33546779D02*
X82142800Y-33594398D01*
X82142800Y-33594398D02*
X82095180Y-33689636D01*
X82095180Y-33689636D02*
X82095180Y-33784874D01*
X82476133Y-34880113D02*
X82476133Y-35642018D01*
X82476133Y-36118208D02*
X82476133Y-36880113D01*
X82761847Y-37356303D02*
X82476133Y-38118208D01*
X82476133Y-38118208D02*
X82190419Y-37356303D01*
X98335180Y-29403922D02*
X97335180Y-29737255D01*
X97335180Y-29737255D02*
X98335180Y-30070588D01*
X97716133Y-30403922D02*
X97716133Y-31165827D01*
X97430419Y-32213445D02*
X97382800Y-32165826D01*
X97382800Y-32165826D02*
X97335180Y-32022969D01*
X97335180Y-32022969D02*
X97335180Y-31927731D01*
X97335180Y-31927731D02*
X97382800Y-31784874D01*
X97382800Y-31784874D02*
X97478038Y-31689636D01*
X97478038Y-31689636D02*
X97573276Y-31642017D01*
X97573276Y-31642017D02*
X97763752Y-31594398D01*
X97763752Y-31594398D02*
X97906609Y-31594398D01*
X97906609Y-31594398D02*
X98097085Y-31642017D01*
X98097085Y-31642017D02*
X98192323Y-31689636D01*
X98192323Y-31689636D02*
X98287561Y-31784874D01*
X98287561Y-31784874D02*
X98335180Y-31927731D01*
X98335180Y-31927731D02*
X98335180Y-32022969D01*
X98335180Y-32022969D02*
X98287561Y-32165826D01*
X98287561Y-32165826D02*
X98239942Y-32213445D01*
X98001847Y-33070588D02*
X97335180Y-33070588D01*
X98001847Y-32642017D02*
X97478038Y-32642017D01*
X97478038Y-32642017D02*
X97382800Y-32689636D01*
X97382800Y-32689636D02*
X97335180Y-32784874D01*
X97335180Y-32784874D02*
X97335180Y-32927731D01*
X97335180Y-32927731D02*
X97382800Y-33022969D01*
X97382800Y-33022969D02*
X97430419Y-33070588D01*
X98001847Y-33403922D02*
X98001847Y-33784874D01*
X98335180Y-33546779D02*
X97478038Y-33546779D01*
X97478038Y-33546779D02*
X97382800Y-33594398D01*
X97382800Y-33594398D02*
X97335180Y-33689636D01*
X97335180Y-33689636D02*
X97335180Y-33784874D01*
X97716133Y-34880113D02*
X97716133Y-35642018D01*
X97716133Y-36118208D02*
X97716133Y-36880113D01*
X98001847Y-37356303D02*
X97716133Y-38118208D01*
X97716133Y-38118208D02*
X97430419Y-37356303D01*
M02*
